# xmcd CD database file
#
# Track frame offsets:
#	150
#	6102
#	12596
#	18604
#	27418
#	34725
#	40113
#	51142
#	59449
#	68690
#	73919
#	84557
#
# Disc length: 1205 seconds
#
# Revision: 0
# Processed by: cddbd v1.5.2PL0 Copyright (c) Steve Scherf et al.
# Submitted via: CDex 1.70beta2
#
DISCID=9f04b30c
DTITLE=Bill Holcombe's Musicians Publications - George Genna's Jazz Stylings Vol. 1
DYEAR=2004
DGENRE=Jazz
TTITLE0=Love is Beautiful
TTITLE1=Our Cup of Tea
TTITLE2=Moonflight
TTITLE3=Lonesome Train Blues
TTITLE4=Springtime in Paris
TTITLE5=Out of the Blue
TTITLE6=February Fling
TTITLE7=Tribal Dance
TTITLE8=Hand and Heart
TTITLE9=Fly Away
TTITLE10=Nebulous
TTITLE11=Wheel of Life
EXTD=YEAR: 2004
EXTT0=
EXTT1=
EXTT2=
EXTT3=
EXTT4=
EXTT5=
EXTT6=
EXTT7=
EXTT8=
EXTT9=
EXTT10=
EXTT11=
PLAYORDER=
